<svg viewBox="0 0 304 295" fill="none" xmlns="http://www.w3.org/2000/svg">
<path d="M178.614 286.594C170.609 288.879 165.618 289.195 157.291 289.195C150.493 289.195 146.413 288.48 139.884 286.594C117.359 280.089 146.132 269.716 139.884 247.195C133.636 224.675 131.373 226.269 124 222.157C99.5615 208.528 53.5612 256.375 36.5003 234.195C21.5003 214.695 46.2375 225.916 53.5 211.695C61.6711 195.695 -3.30397 192.145 16.5 167.695C24.4871 157.834 30.8391 134.828 43 137.195C53.6868 139.276 45.9071 156.386 50.5002 167.695C63.5827 199.908 78.0718 198.428 108 189.695C143.017 179.478 82 159.695 68.4999 137.195C52.8249 111.071 6.99994 125.173 7 89.1953C7.00005 59.8077 33.587 103.534 36.5003 93.1953C42.7777 70.9179 -3.58722 7.82502 19.5003 6.19531C62.0003 3.19531 21.9507 35.6953 68.4999 39.1953C87.1324 40.5963 82.1164 13.1953 111 13.1953C139.884 13.1953 114.499 36.3936 108 48.6953C97.2786 68.9896 73.0001 44.6953 53.5 70.6953C46.2782 80.3243 52.8275 94.9827 68.4999 101.695C87.3849 109.784 109.47 93.7094 105.5 82.1953C100.5 67.6953 137.604 59.3242 143.5 78.6953C150.5 101.695 96.8291 99.1953 96.8291 125.173C96.8291 137.671 127.833 154.535 146 144.695C166.001 133.863 166.567 100.49 157.291 74.1953C151.109 56.6712 110.841 45.4308 128 36.6953C155.5 22.6953 159.848 65.6021 175.5 56.3082C193.314 45.7307 143.5 7.19531 173.5 7.19531C235.518 7.19531 185.104 49.7814 207.5 56.3082C234.05 64.0459 226.5 18.6953 267.5 18.6953C308.5 18.6953 265.672 55.6528 250.5 70.6953C234.49 86.5688 199.849 78.2766 195 86.5875C183.595 106.133 203.817 133.879 183.5 154.195C170.5 167.195 142.275 175.447 167.5 189.695C187.716 201.114 203.521 173.235 212.5 152.195C220.241 134.057 196.699 104.082 212.5 101.695C246.5 96.5591 221.213 132.314 239 132.695C265.128 133.255 270.83 66.461 287.5 86.5875C301.473 103.457 269.252 118.361 271 140.195C272.529 159.287 302.459 141.337 297 159.695C289.026 186.513 270.359 164.518 245.5 179.5C227.211 190.522 196.744 196.655 185 222.157C176.047 241.6 196.317 281.541 178.614 286.594Z" fill="#FC7C33"/>
</svg>
