<svg width="100" height="100" viewBox="0 0 100 100" fill="none" xmlns="http://www.w3.org/2000/svg">
<path d="M45.3999 18.9797C48.2539 17.6734 51.535 17.6734 54.389 18.9797L75.2703 28.5366C77.6664 29.6333 79.575 31.5982 79.8509 34.2189C80.2997 38.483 79.9858 46.2193 75.3309 57.6489C69.8284 71.1597 58.8889 78.0484 53.3215 80.8041C51.1473 81.8803 48.649 81.8629 46.484 80.7685C40.8986 77.945 29.8962 70.9406 24.6282 57.6489C20.2921 46.7087 19.7797 39.0331 20.0644 34.6406C20.2498 31.7797 22.2647 29.5682 24.8716 28.3751L45.3999 18.9797Z" fill="#0066FF"/>
<path d="M49.0489 35.327C49.3483 34.4056 50.6517 34.4056 50.9511 35.327L53.8167 44.1466C53.9506 44.5586 54.3346 44.8376 54.7678 44.8376H64.0413C65.0101 44.8376 65.4128 46.0772 64.6291 46.6466L57.1267 52.0975C56.7762 52.3521 56.6295 52.8035 56.7634 53.2155L59.6291 62.0352C59.9284 62.9565 58.8739 63.7226 58.0902 63.1532L50.5878 57.7023C50.2373 57.4477 49.7627 57.4477 49.4122 57.7023L41.9098 63.1532C41.126 63.7226 40.0716 62.9565 40.3709 62.0352L43.2366 53.2155C43.3705 52.8035 43.2238 52.3521 42.8733 52.0975L35.3709 46.6466C34.5872 46.0772 34.9899 44.8376 35.9587 44.8376H45.2322C45.6654 44.8376 46.0494 44.5586 46.1833 44.1466L49.0489 35.327Z" fill="white"/>
</svg>
