<svg width="100" height="100" viewBox="0 0 100 100" fill="none" xmlns="http://www.w3.org/2000/svg">
<path fill-rule="evenodd" clip-rule="evenodd" d="M54.389 18.9797C51.535 17.6734 48.2539 17.6734 45.3999 18.9797L24.8716 28.3751C22.2647 29.5682 20.2498 31.7797 20.0644 34.6406C19.7797 39.0331 20.2921 46.7087 24.6282 57.6489C29.8962 70.9406 40.8986 77.945 46.484 80.7685C48.649 81.8629 51.1473 81.8803 53.3215 80.8041C58.8889 78.0484 69.8284 71.1597 75.3309 57.6489C79.9858 46.2193 80.2997 38.483 79.8509 34.2189C79.575 31.5982 77.6664 29.6333 75.2703 28.5366L54.389 18.9797ZM50.9511 35.327C50.6517 34.4057 49.3483 34.4057 49.0489 35.327L46.1833 44.1467C46.0494 44.5587 45.6654 44.8376 45.2322 44.8376H35.9587C34.9899 44.8376 34.5872 46.0773 35.3709 46.6467L42.8733 52.0975C43.2238 52.3521 43.3705 52.8035 43.2366 53.2155L40.3709 62.0352C40.0716 62.9565 41.126 63.7226 41.9098 63.1532L49.4122 57.7024C49.7627 57.4477 50.2373 57.4477 50.5878 57.7024L58.0902 63.1532C58.8739 63.7226 59.9284 62.9565 59.6291 62.0352L56.7634 53.2155C56.6295 52.8035 56.7762 52.3521 57.1267 52.0975L64.6291 46.6467C65.4128 46.0773 65.0101 44.8376 64.0413 44.8376H54.7678C54.3346 44.8376 53.9506 44.5587 53.8167 44.1467L50.9511 35.327Z" fill="#0066FF"/>
</svg>
