<svg width="315" height="308" viewBox="0 0 315 308" fill="none" xmlns="http://www.w3.org/2000/svg">
<g clip-path="url(#clip0_176_125)">
<path d="M55.7813 2.47547e-05H259.219C266.546 -0.00688122 273.803 1.43123 280.573 4.23205C287.344 7.03288 293.496 11.1414 298.677 16.3226C303.859 21.5037 307.967 27.6557 310.768 34.4265C313.569 41.1974 315.007 48.454 315 55.7813V251.344C315.007 258.671 313.569 265.928 310.768 272.698C307.967 279.469 303.859 285.621 298.677 290.802C293.496 295.984 287.344 300.092 280.573 302.893C273.803 305.694 266.546 307.132 259.219 307.125H55.7813C48.454 307.132 41.1974 305.694 34.4265 302.893C27.6557 300.092 21.5037 295.984 16.3226 290.802C11.1414 285.621 7.03288 279.469 4.23205 272.698C1.43123 265.928 -0.00688122 258.671 2.47547e-05 251.344V55.7813C-0.00688122 48.454 1.43123 41.1974 4.23205 34.4265C7.03288 27.6557 11.1414 21.5037 16.3226 16.3226C21.5037 11.1414 27.6557 7.03288 34.4265 4.23205C41.1974 1.43123 48.454 -0.00688122 55.7813 2.47547e-05Z" fill="#000B1D"/>
<path d="M74.8125 214.594V80.325C74.8125 79.4063 75.2063 78.8813 76.125 78.8813C78.3563 78.8813 81.1125 78.8813 84.1312 78.75C87.15 78.6188 90.5625 78.6188 94.1062 78.4875C97.65 78.3563 101.456 78.3563 105.525 78.225C109.594 78.0938 113.531 78.0938 117.469 78.0938C128.231 78.0938 137.156 79.4063 144.506 82.1625C151.095 84.4 157.103 88.0765 162.094 92.925C166.323 97.1681 169.591 102.271 171.675 107.888C173.662 113.357 174.683 119.131 174.694 124.95C174.694 136.238 172.069 145.556 166.819 152.906C161.544 160.246 154.18 165.826 145.688 168.919C136.221 172.334 126.219 174.023 116.156 173.906C113.006 173.906 110.906 173.906 109.594 173.775C108.281 173.644 105.919 174.038 103.425 174.038V214.988C103.454 215.203 103.44 215.423 103.383 215.633C103.326 215.844 103.227 216.04 103.092 216.212C102.957 216.383 102.79 216.526 102.599 216.631C102.408 216.736 102.198 216.802 101.981 216.825H101.456L76.2562 216.431C75.3375 216.3 74.8125 215.775 74.8125 214.594ZM103.425 104.606V148.313C105.263 148.444 107.494 148.181 109.069 148.181H116.025C121.135 148.276 126.229 147.567 131.119 146.081C135.303 144.851 139.041 142.435 141.881 139.125C144.637 135.844 145.95 131.381 145.95 125.606C146.073 121.505 145.026 117.453 142.931 113.925C140.743 110.517 137.524 107.896 133.744 106.444C128.816 104.514 123.544 103.62 118.256 103.819C114.844 103.819 111.825 103.819 109.331 103.95C107.346 103.974 105.367 104.194 103.425 104.606ZM202.125 136.369H189.131C188.081 136.238 187.688 135.713 187.688 134.925V113.269C187.648 112.94 187.735 112.609 187.929 112.341C188.124 112.073 188.413 111.889 188.738 111.825H202.125V108.806C202.083 104.365 202.434 99.9291 203.175 95.55C203.853 91.8749 205 88.302 206.587 84.9188C209.338 79.2416 213.495 74.3621 218.663 70.7438C223.913 67.0688 230.737 65.2313 239.4 65.2313C241.5 65.2313 243.469 65.3625 245.569 65.4938C247.241 65.622 248.881 66.0209 250.425 66.675C250.86 66.8221 251.236 67.1062 251.496 67.4847C251.757 67.8633 251.887 68.316 251.869 68.775V89.6438C251.869 90.6938 251.344 90.9563 250.163 90.6938C249.119 90.5412 248.067 90.4535 247.012 90.4313H243.863C241.549 90.3769 239.255 90.8716 237.169 91.875C235.179 92.9347 233.674 94.7212 232.969 96.8625C231.684 99.8536 230.972 103.059 230.869 106.313V111.694H248.719C249.274 111.628 249.835 111.768 250.294 112.088C250.435 112.272 250.531 112.486 250.577 112.713C250.622 112.941 250.615 113.176 250.556 113.4V134.925C250.556 135.975 249.9 136.369 248.719 136.369H230.869V214.463C230.845 214.91 230.756 215.352 230.606 215.775C230.419 216.007 230.177 216.189 229.902 216.304C229.627 216.418 229.328 216.462 229.031 216.431H203.962C202.781 216.431 202.256 215.775 202.256 214.594V136.369H202.125Z" fill="white"/>
</g>
<defs>
<clipPath id="clip0_176_125">
<rect width="315" height="307.125" fill="white"/>
</clipPath>
</defs>
</svg>
