<svg viewBox="0 200 1929 699" fill="none" xmlns="http://www.w3.org/2000/svg">
<path fill-rule="evenodd" clip-rule="evenodd" d="M1929 535.726L1888.81 532.072C1848.62 528.419 1768.25 521.112 1687.87 524.766C1607.5 528.419 1527.12 543.554 1446.75 547.207C1366.37 550.86 1286 543.554 1205.62 547.207C1125.25 550.86 1044.87 565.995 964.5 562.342C884.125 558.689 803.75 535.726 723.375 535.726C643 535.726 562.625 558.689 482.25 577.477C401.875 596.265 321.5 610.878 241.125 615.053C160.75 618.707 80.3749 610.878 40.1874 607.225L-9.15527e-05 603.572V376.026H40.1874C80.3749 376.026 160.75 376.026 241.125 376.026C321.5 376.026 401.875 376.026 482.25 376.026C562.625 376.026 643 376.026 723.375 376.026C803.75 376.026 884.125 376.026 964.5 376.026C1044.87 376.026 1125.25 376.026 1205.62 376.026C1286 376.026 1366.37 376.026 1446.75 376.026C1527.12 376.026 1607.5 376.026 1687.87 376.026C1768.25 376.026 1848.62 376.026 1888.81 376.026H1929V535.726Z" fill="#003E7C"/>
<path fill-rule="evenodd" clip-rule="evenodd" d="M1929 517.979L1888.81 514.326C1848.62 510.672 1768.25 503.366 1687.87 507.019C1607.5 510.673 1527.12 525.808 1446.75 529.461C1366.37 533.114 1286 525.808 1205.62 529.461C1125.25 533.114 1044.87 548.249 964.5 544.596C884.125 540.942 803.75 517.979 723.375 517.979C643 517.979 562.625 540.943 482.25 559.731C401.875 578.519 321.5 593.132 241.125 597.307C160.75 600.96 80.3749 593.132 40.1874 589.479L-9.15527e-05 585.825V0H40.1874C80.3749 0 160.75 0 241.125 0C321.5 0 401.875 0 482.25 0C562.625 0 643 0 723.375 0C803.75 0 884.125 0 964.5 0C1044.87 0 1125.25 0 1205.62 0C1286 0 1366.37 0 1446.75 0C1527.12 0 1607.5 0 1687.87 0C1768.25 0 1848.62 0 1888.81 0H1929V517.979Z" fill="#03061c"/>
</svg>
