<svg viewBox="0 0 1929 600" fill="none" xmlns="http://www.w3.org/2000/svg">
<path d="M0 411.128C0 411.128 542.78 359.35 893.167 357.18C933.382 356.93 955.933 356.95 996.148 357.18C1361.97 359.267 1929 411.128 1929 411.128V600H0V411.128Z" fill="#002953"/>
<path fill-rule="evenodd" clip-rule="evenodd" d="M0 599C0 599 117.405 462.589 213.856 402.885C343.365 322.718 437.571 295.913 586.714 286.998C735.857 278.084 884.999 331.57 1034.14 340.484C1183.29 349.399 1332.43 313.741 1481.57 349.399C1630.71 385.056 1779.86 492.028 1854.43 545.514L1929 599L1929 600H0V599Z" fill="#002953"/>
<path d="M976.692 532.862C888.552 546.806 318.486 600 318.486 600H732.547C732.547 600 1030.84 546.806 1118.98 532.862C1207.12 518.919 1210.07 498.659 896.179 488.743C680.492 481.93 1185.03 457.572 1185.03 457.572C1185.03 457.572 1328.74 452.027 1301.7 435.993C1260.77 411.719 951.326 399.546 940.289 373.171C928.867 345.876 1065.68 343.483 1130.78 343.483L1026.45 342C916.984 342 788.04 382.105 1026.45 406.85C1320.72 437.394 1206.67 446.776 1140.18 450.748C985.821 459.97 502.158 485.246 816.05 495.162C1129.94 505.078 1064.83 518.919 976.692 532.862Z" fill="#002447"/>
<path d="M300.892 556.532C275.06 554.446 259.814 533.392 239.967 530.152C226.121 525.061 210.058 516.676 203.7 506.087C198.145 496.834 202.521 482.769 201.572 472.302C200.69 462.564 193.995 456.437 201.572 447.328C208.978 438.424 211.271 420.483 222.558 413.527C238.559 403.666 267.199 393.667 267.199 393.667H294.43C294.43 393.667 314.662 382.815 326.277 376.966C343.553 368.267 340.828 372.72 359.97 355.444C373.138 343.561 389.476 333.414 407.117 333.017C422.665 332.666 451.093 337.822 462.606 343.489C473.317 348.761 482.728 349.959 491.672 358.81C503.685 370.698 529.536 371.558 541.876 386.586C548.283 394.389 579.419 419.631 585.475 426.929C594.612 437.94 592.811 469.831 598.686 481.159C606.967 497.125 590.761 500.538 585.475 521.359C582.227 534.152 571.303 536.258 561.033 546.109C544.366 562.097 516.436 556.532 516.436 556.532C516.436 556.532 369.663 562.085 300.892 556.532Z" fill="#6A7376"/>
<path d="M561.962 548.228C561.962 548.228 545.538 550.034 537.603 548.737C532.067 546.698 533.821 543.341 531.279 539.101C529.058 535.397 530.807 529.765 530.428 525.575C530.076 521.676 527.399 519.223 530.428 515.576C533.389 512.011 526.129 504.828 530.642 502.042C537.04 498.094 548.491 494.091 548.491 494.091L559.302 487.404C559.302 487.404 567.468 489.746 572.112 487.404C579.02 483.921 577.93 485.704 585.584 478.787C590.848 474.03 602.902 480.294 609.955 480.135C616.172 479.994 618.275 480.856 622.878 483.125C627.16 485.236 636.025 487.712 639.601 491.256C644.404 496.016 654.431 491.574 659.365 497.591C661.927 500.716 690.39 512.654 692.811 515.576C696.465 519.984 690.531 535.981 690.531 535.981C690.531 535.981 679.348 546.955 670.387 550.888C659.277 555.764 643.707 551.131 639.601 555.075C632.937 561.477 598.262 558.121 598.262 558.121L561.962 548.228Z" fill="#76898F"/>
<path d="M559.223 531.394C559.223 531.394 569.077 530.227 573.838 531.065C577.16 532.383 576.107 534.553 577.633 537.293C578.965 539.688 577.916 543.327 578.143 546.036C578.355 548.556 579.961 550.141 578.143 552.499C576.366 554.803 580.722 559.446 578.015 561.246C574.176 563.798 567.306 566.385 567.306 566.385C567.306 566.385 563.734 569.832 560.819 570.707C557.944 571.57 555.919 569.194 553.133 570.707C548.988 572.958 549.642 571.806 545.05 576.276C541.891 579.352 530.427 575.406 530.427 575.406C530.427 575.406 525.738 574.058 522.673 573.473C512.234 571.479 505.812 575.915 495.458 573.518C490.685 572.412 486.56 573.312 483.599 569.423C482.062 567.403 482.166 554.387 480.713 552.499C478.521 549.649 482.082 539.31 482.082 539.31C482.082 539.31 488.693 532.217 494.168 529.675C500.78 526.605 512.639 526.968 512.639 526.968L537.443 525L559.223 531.394Z" fill="#6F8389"/>
<path fill-rule="evenodd" clip-rule="evenodd" d="M340.44 390.278C342.448 384.83 354.918 381.939 359.138 385.942C381.688 407.324 418.007 412.569 468.098 401.676C477.477 399.636 482.812 405.1 476.107 409.868C440.275 435.346 432.469 459.27 452.692 481.64C456.474 485.829 447.304 492.096 438.936 491.039C394.245 485.402 353.107 494.94 315.52 519.655C308.483 524.283 297.474 522.696 299.007 517.275C307.216 488.313 289.592 470.285 246.136 463.19C238.004 461.863 240.365 454.614 249.684 452.319C299.456 440.057 329.708 419.377 340.44 390.278Z" fill="#FC7C33"/>
<path d="M364.927 454.278C369.674 453.177 373.039 450.222 372.444 447.678C371.849 445.134 367.518 443.964 362.771 445.065C358.024 446.166 354.658 449.12 355.253 451.664C355.849 454.208 360.18 455.378 364.927 454.278Z" fill="#F9AD81"/>
<path d="M421.498 477.174C424.602 476.454 426.803 474.522 426.414 472.859C426.024 471.195 423.193 470.43 420.089 471.15C416.985 471.87 414.784 473.802 415.174 475.465C415.563 477.128 418.395 477.893 421.498 477.174Z" fill="#F9AD81"/>
<path d="M401.978 467.96C405.082 467.24 407.283 465.308 406.893 463.645C406.504 461.982 403.672 461.217 400.568 461.936C397.465 462.656 395.264 464.588 395.653 466.251C396.043 467.915 398.874 468.68 401.978 467.96Z" fill="#F9AD81"/>
<path d="M388.497 460.69C391.601 459.971 393.801 458.039 393.412 456.376C393.023 454.712 390.191 453.947 387.087 454.667C383.983 455.387 381.783 457.318 382.172 458.982C382.561 460.645 385.393 461.41 388.497 460.69Z" fill="#F9AD81"/>
<path d="M440.362 486.558C443.465 485.838 445.666 483.906 445.277 482.243C444.887 480.579 442.056 479.814 438.952 480.534C435.848 481.254 433.647 483.186 434.037 484.849C434.426 486.512 437.258 487.277 440.362 486.558Z" fill="#F9AD81"/>
<path d="M358.71 424.422C361.819 423.701 364.023 421.766 363.633 420.099C363.243 418.433 360.407 417.667 357.297 418.388C354.188 419.109 351.983 421.044 352.373 422.71C352.763 424.376 355.6 425.143 358.71 424.422Z" fill="#F9AD81"/>
<path d="M354.912 408.732C358.021 408.011 360.226 406.076 359.836 404.409C359.446 402.743 356.609 401.977 353.499 402.698C350.39 403.419 348.186 405.354 348.576 407.02C348.966 408.686 351.802 409.453 354.912 408.732Z" fill="#F9AD81"/>
<path d="M351.074 393.228C354.191 392.505 356.4 390.565 356.009 388.895C355.618 387.225 352.775 386.457 349.658 387.179C346.542 387.902 344.332 389.842 344.723 391.512C345.114 393.182 347.957 393.95 351.074 393.228Z" fill="#F9AD81"/>
<path d="M361.806 436.743C364.921 436.021 367.129 434.082 366.738 432.413C366.348 430.744 363.506 429.976 360.391 430.698C357.276 431.421 355.068 433.359 355.459 435.029C355.849 436.698 358.691 437.465 361.806 436.743Z" fill="#F9AD81"/>
<path d="M410.734 431.09C413.838 430.37 416.038 428.438 415.649 426.775C415.26 425.111 412.428 424.346 409.324 425.066C406.22 425.786 404.02 427.718 404.409 429.381C404.798 431.044 407.63 431.809 410.734 431.09Z" fill="#F9AD81"/>
<path d="M438.869 421.432C441.978 420.711 444.182 418.775 443.792 417.109C443.402 415.443 440.566 414.677 437.456 415.397C434.347 416.118 432.143 418.054 432.532 419.72C432.922 421.386 435.759 422.153 438.869 421.432Z" fill="#F9AD81"/>
<path d="M466.511 411.608C469.615 410.888 471.816 408.956 471.426 407.293C471.037 405.63 468.205 404.865 465.102 405.584C461.998 406.304 459.797 408.236 460.186 409.899C460.576 411.563 463.407 412.328 466.511 411.608Z" fill="#F9AD81"/>
<path d="M389.703 439.38C392.812 438.659 395.016 436.724 394.626 435.058C394.236 433.392 391.4 432.625 388.29 433.346C385.181 434.067 382.976 436.002 383.366 437.669C383.756 439.335 386.593 440.101 389.703 439.38Z" fill="#F9AD81"/>
<path d="M285.249 457.045C288.358 456.324 290.563 454.389 290.173 452.723C289.783 451.056 286.946 450.29 283.837 451.011C280.728 451.732 278.523 453.667 278.913 455.334C279.303 457 282.14 457.766 285.249 457.045Z" fill="#F9AD81"/>
<path d="M314.672 454.081C317.787 453.359 319.995 451.42 319.604 449.751C319.214 448.082 316.372 447.314 313.257 448.036C310.142 448.758 307.934 450.697 308.324 452.366C308.715 454.035 311.557 454.803 314.672 454.081Z" fill="#F9AD81"/>
<path d="M337.688 451.489C340.8 450.768 343.005 448.832 342.615 447.164C342.225 445.497 339.386 444.73 336.275 445.452C333.164 446.173 330.958 448.109 331.349 449.777C331.739 451.444 334.577 452.211 337.688 451.489Z" fill="#F9AD81"/>
<path d="M256.105 460.308C259.216 459.587 261.422 457.65 261.032 455.983C260.642 454.316 257.803 453.549 254.692 454.27C251.581 454.992 249.375 456.928 249.765 458.595C250.156 460.263 252.994 461.029 256.105 460.308Z" fill="#F9AD81"/>
<path d="M326.616 499.531C329.733 498.808 331.942 496.869 331.551 495.198C331.161 493.528 328.317 492.76 325.201 493.483C322.084 494.205 319.874 496.145 320.265 497.815C320.656 499.486 323.5 500.254 326.616 499.531Z" fill="#F9AD81"/>
<path d="M339.36 482.607C342.475 481.885 344.683 479.946 344.293 478.277C343.902 476.608 341.06 475.84 337.946 476.562C334.831 477.284 332.622 479.223 333.013 480.892C333.404 482.562 336.245 483.329 339.36 482.607Z" fill="#F9AD81"/>
<path d="M348.517 469.832C351.626 469.111 353.83 467.176 353.44 465.51C353.05 463.843 350.214 463.077 347.104 463.798C343.995 464.519 341.791 466.454 342.181 468.12C342.571 469.787 345.407 470.553 348.517 469.832Z" fill="#F9AD81"/>
<path d="M313.495 516.201C316.605 515.48 318.809 513.544 318.419 511.878C318.029 510.212 315.192 509.445 312.083 510.166C308.974 510.887 306.769 512.823 307.159 514.489C307.549 516.155 310.386 516.922 313.495 516.201Z" fill="#F9AD81"/>
<path fill-rule="evenodd" clip-rule="evenodd" d="M165.207 549.582C170.448 557.875 206.994 518.579 202.615 465.116C198.421 413.837 183.77 410.87 172.418 351.119C157.313 271.618 191.535 209.714 186.345 206.155C181.378 202.747 134.203 255.799 142.677 342.099C147.664 392.933 164.486 411.661 172.875 462.655C180.652 509.968 160.262 541.759 165.207 549.582Z" fill="#7CC576"/>
<path fill-rule="evenodd" clip-rule="evenodd" d="M135.187 558.993C151.742 559.805 177.07 491.179 174.47 444.919C170.49 374.049 151.12 365.566 127.36 286.502C119.215 259.403 121.2 231.821 128.436 205.713C149.273 130.474 141.988 56.9813 132.945 53.1487C124.848 49.7154 136.425 106.238 98.9005 170.657C75.7757 210.353 64.9189 250.341 73.1352 296.012C85.7613 366.208 114.708 400.527 120.992 467.839C125.907 520.474 121.719 558.331 135.187 558.993Z" fill="#3CB878"/>
<path fill-rule="evenodd" clip-rule="evenodd" d="M85.5198 550.837C53.073 552.048 23.9853 504.205 22.3182 465.955C19.7637 407.352 34.9906 398.801 48.0297 331.852C52.4987 308.904 48.5965 286.385 40.5007 265.508C17.1781 205.343 17.1253 144.311 24.2424 140.423C30.6194 136.94 25.7482 184.362 61.9035 234.274C84.1817 265.031 96.3991 297.029 93.4004 335.253C88.7916 394.003 75.7428 415.88 76.1096 471.737C76.4624 525.015 111.359 549.874 85.5198 550.837Z" fill="#7CC576"/>
<path fill-rule="evenodd" clip-rule="evenodd" d="M206.665 554.049C234.559 555.091 259.565 513.96 260.999 481.078C263.194 430.698 250.104 423.346 238.895 365.791C235.053 346.064 238.407 326.705 245.364 308.756C265.415 257.029 265.46 204.565 259.347 201.223C253.861 198.226 258.056 238.996 226.972 281.905C207.818 308.348 197.315 335.855 199.893 368.715C203.856 419.222 215.074 438.029 214.759 486.048C214.451 531.854 184.449 553.226 206.665 554.049Z" fill="#7CC576"/>
<path d="M1542.97 504.18C1536.22 506.647 1531.98 507.06 1524.91 507.212C1519.13 507.336 1515.65 506.683 1510.06 504.888C1490.77 498.692 1515 487.63 1509.2 464.87C1503.39 442.109 1501.51 443.77 1495.15 439.728C1474.08 426.331 1436.04 475.77 1421.05 453.554C1407.88 434.022 1429.15 444.967 1435.01 430.39C1441.6 413.989 1386.31 411.571 1402.6 386.374C1409.18 376.212 1414.07 352.729 1424.46 354.911C1433.59 356.828 1427.35 374.35 1431.5 385.753C1443.32 418.233 1455.6 416.465 1480.84 407.048C1510.38 396.03 1458.09 377.052 1446.13 354.445C1432.24 328.196 1393.6 343.357 1392.82 306.814C1392.17 276.964 1415.72 320.892 1417.97 310.338C1422.82 287.595 1382.04 224.358 1401.63 222.281C1437.68 218.457 1404.35 252.2 1443.99 254.904C1459.85 255.987 1454.99 228.247 1479.54 227.719C1504.09 227.191 1483.02 251.218 1477.76 263.832C1469.1 284.641 1447.93 260.408 1431.93 287.173C1426 297.086 1431.89 311.855 1445.35 318.387C1461.58 326.257 1480 309.527 1476.37 297.904C1471.81 283.267 1503.16 274.087 1508.59 293.655C1515.04 316.888 1469.37 315.33 1469.94 341.716C1470.21 354.41 1496.93 370.972 1512.15 360.646C1528.92 349.278 1528.67 315.37 1520.21 288.832C1514.57 271.145 1480.11 260.464 1494.5 251.278C1517.56 236.555 1522.2 280.057 1535.29 270.331C1550.2 259.262 1507.03 221.031 1532.52 220.482C1585.23 219.349 1543.31 263.526 1562.49 269.746C1585.22 277.12 1577.81 231.195 1612.66 230.446C1647.5 229.696 1611.91 268.017 1599.35 283.574C1586.09 299.989 1556.47 292.2 1552.53 300.73C1543.26 320.791 1561.05 348.603 1544.23 369.611C1533.47 383.052 1509.66 391.949 1531.41 405.961C1548.84 417.19 1561.66 388.584 1568.83 367.049C1575.01 348.484 1554.35 318.469 1567.73 315.755C1596.51 309.917 1575.8 346.696 1590.93 346.758C1613.14 346.85 1616.53 278.901 1631.14 299.04C1643.38 315.919 1616.32 331.646 1618.28 353.792C1620 373.155 1645.04 354.377 1640.81 373.123C1634.62 400.508 1618.27 378.508 1597.47 394.18C1582.17 405.71 1556.41 412.496 1546.99 438.614C1539.81 458.525 1557.9 498.723 1542.97 504.18Z" fill="#B246F4"/>
<path d="M1324.46 578.892C1333.11 581.556 1338.52 582.015 1347.57 582.21C1354.96 582.368 1359.41 581.688 1366.55 579.797C1391.19 573.274 1360.16 561.358 1367.47 537.096C1374.79 512.835 1377.21 514.616 1385.32 510.331C1412.2 496.131 1461.08 549.062 1480.14 525.423C1496.9 504.639 1469.75 516.222 1462.19 500.64C1453.68 483.108 1524.39 480.779 1503.43 453.817C1494.98 442.943 1488.61 417.861 1475.34 420.142C1463.68 422.147 1471.73 440.873 1466.48 453.023C1451.51 487.629 1435.79 485.687 1403.47 475.523C1365.65 463.63 1432.43 443.616 1447.62 419.546C1465.27 391.598 1514.75 407.953 1515.59 368.96C1516.27 337.11 1486.36 383.879 1483.43 372.606C1477.13 348.315 1528.99 281.018 1503.94 278.712C1457.81 274.468 1500.58 310.627 1449.91 313.333C1429.62 314.416 1435.71 284.836 1404.32 284.161C1372.93 283.486 1399.98 309.221 1406.75 322.706C1417.93 344.951 1444.89 319.189 1465.48 347.823C1473.1 358.428 1465.64 374.162 1448.45 381.071C1427.74 389.396 1404.11 371.458 1408.69 359.072C1414.46 343.473 1374.33 333.534 1367.47 354.39C1359.32 379.154 1417.72 377.699 1417.11 405.854C1416.82 419.399 1382.73 436.952 1363.21 425.863C1341.73 413.656 1341.89 377.472 1352.58 349.191C1359.71 330.343 1403.74 319.101 1385.29 309.233C1355.73 293.417 1350.01 339.818 1333.21 329.379C1314.09 317.499 1369.14 276.898 1336.53 276.197C1269.12 274.748 1322.92 322.081 1298.43 328.631C1269.39 336.397 1278.65 287.422 1234.09 286.464C1189.53 285.506 1235.22 326.562 1251.36 343.219C1268.39 360.797 1306.23 352.62 1311.31 361.741C1323.25 383.191 1300.62 412.789 1322.23 435.283C1336.06 449.676 1366.55 459.279 1338.8 474.132C1316.56 486.035 1300.03 455.451 1290.76 432.438C1282.77 412.598 1309.05 380.662 1291.94 377.705C1255.1 371.344 1281.75 410.687 1262.41 410.684C1234 410.68 1229.36 338.155 1210.77 359.579C1195.19 377.535 1229.86 394.441 1227.45 418.065C1225.35 438.721 1193.23 418.567 1198.74 438.592C1206.78 467.843 1227.58 444.441 1254.25 461.259C1273.88 473.633 1306.85 480.992 1319.02 508.906C1328.3 530.187 1305.33 573.001 1324.46 578.892Z" fill="#7446F4"/>
<path d="M1606.1 556.708C1615.33 562.639 1621.5 564.837 1632 567.792C1640.57 570.204 1645.99 570.683 1654.94 570.45C1685.82 569.646 1653.48 545.407 1669.93 517.168C1686.38 488.929 1688.63 491.888 1699.49 488.943C1735.49 479.183 1775.29 560.21 1805.24 536.269C1831.57 515.22 1796.11 521.617 1792.37 499.809C1788.15 475.272 1871.43 493.525 1855.76 453.432C1849.45 437.263 1850.19 403.896 1833.96 402.783C1819.69 401.804 1822.99 427.704 1812.89 441.369C1784.14 480.29 1766.43 473.149 1732.02 450.719C1691.75 424.477 1776.22 419.373 1801.8 393.735C1831.51 363.966 1883.92 399.297 1897.62 350.641C1908.8 310.898 1858.63 360.599 1858.9 345.584C1859.46 313.229 1941.93 244.355 1913.44 233.959C1860.99 214.823 1899.12 272.985 1839.1 261.202C1815.07 256.486 1831.82 221.209 1795.4 210.961C1758.98 200.713 1782.16 241.092 1785.67 260.035C1791.47 291.284 1831.33 267.043 1846.02 309.124C1851.46 324.708 1837.63 342.208 1815.31 345.725C1788.42 349.964 1766.69 320.389 1776.08 306.226C1787.9 288.391 1744.3 263.905 1729.49 288.01C1711.92 316.631 1780.54 332.293 1770.66 367.425C1765.9 384.327 1720.39 396.132 1701.23 376.38C1680.13 354.634 1692.11 309.3 1713.82 277.031C1728.28 255.526 1783.33 254.612 1765.02 236.71C1735.67 208.019 1713.86 264.503 1697.66 246.381C1679.23 225.755 1756.7 191.315 1718.88 180.671C1640.67 158.667 1688.04 234.146 1657.31 235.027C1620.89 236.071 1647.67 177.419 1595.97 162.871C1544.27 148.324 1584.21 213.5 1597.62 239.227C1611.77 266.374 1658.6 267.451 1661.55 280.411C1668.5 310.89 1632.44 341.238 1650.33 375.922C1661.77 398.115 1694.22 419.289 1656.99 429.608C1627.16 437.878 1617.84 394.567 1614.52 362.928C1611.66 335.651 1652.75 303.468 1633.74 294.633C1592.82 275.623 1611.1 332.95 1588.53 327.154C1555.37 318.641 1573.6 226.287 1544.92 247.591C1520.88 265.447 1555.84 297.035 1545.32 325.943C1536.13 351.22 1505.22 316.325 1505.12 343.089C1504.97 382.186 1536.87 359.063 1562.52 388.145C1581.39 409.541 1617.47 428.645 1622.57 467.3C1626.46 496.77 1585.71 543.593 1606.1 556.708Z" fill="#4F15F2"/>
<path d="M1007 343.128C1007 335.541 1013.33 343.961 1036 335.128C1056.66 327.076 1098.23 311.852 1113 309.826C1114.15 309.668 1115.14 296.698 1115.94 291.628C1116.14 290.383 1114.5 289.628 1116.5 289.628C1118.5 289.628 1116.78 290.407 1116.77 291.628C1116.72 296.687 1115.24 309.609 1116 309.826C1119.08 310.713 1121.82 312.54 1124 314.691C1124.27 314.959 1140.23 307.658 1144.5 306.128C1145.1 305.911 1145.62 303.87 1146.5 305.628C1147.25 307.128 1145.67 306.406 1145 306.772C1140.88 309.023 1125.51 316.338 1125.75 316.628C1129.39 321.176 1130.55 326.295 1127.5 327.128C1122 328.628 1099.5 335.128 1096.5 341.628C1095.38 344.06 1084.65 346.867 1073.5 346.628C1068.05 346.511 1061.66 345.013 1054.5 344.452C1047.29 343.887 1038.95 349.982 1031 348.128C1027.82 347.387 1027.27 343.168 1024.5 343.128C1016.02 343.004 1007 346.896 1007 343.128Z" fill="#2459E0"/>
<path d="M1025.82 288.379C1063.75 253.808 1106.79 303.714 1090.76 322.944C1090.76 322.944 1081.44 332.132 1073.82 334.849C1066.88 337.324 1059.19 334.827 1055.05 336.681C1029.76 347.997 999.832 312.072 1025.82 288.379Z" fill="#0099FF"/>
<path d="M1048.51 311.758C1048.48 311.941 1048.43 312.119 1048.36 312.294C1048.23 312.451 1048.09 312.596 1047.92 312.728C1047.72 312.827 1047.5 312.907 1047.26 312.968C1047 312.984 1046.73 312.976 1046.46 312.944C1046.17 312.86 1045.89 312.75 1045.62 312.613C1045.36 312.423 1045.11 312.208 1044.87 311.966C1044.67 311.677 1044.49 311.365 1044.33 311.032C1044.23 310.661 1044.15 310.274 1044.11 309.873C1044.13 309.449 1044.2 309.019 1044.29 308.583C1044.47 308.145 1044.68 307.711 1044.94 307.281C1045.27 306.871 1045.64 306.477 1046.05 306.098C1046.53 305.762 1047.04 305.452 1047.59 305.169C1048.2 304.95 1048.84 304.767 1049.5 304.62C1050.2 304.555 1050.91 304.533 1051.64 304.554C1052.38 304.669 1053.12 304.831 1053.87 305.042C1054.59 305.351 1055.3 305.708 1056 306.114C1056.65 306.615 1057.27 307.161 1057.85 307.752C1058.37 308.427 1058.83 309.141 1059.25 309.891C1059.57 310.707 1059.83 311.549 1060.03 312.418C1060.11 313.326 1060.12 314.246 1060.07 315.178C1059.87 316.118 1059.61 317.054 1059.28 317.985C1058.81 318.89 1058.27 319.772 1057.66 320.633C1056.92 321.432 1056.11 322.191 1055.24 322.912C1054.26 323.537 1053.22 324.107 1052.13 324.622C1050.96 325.013 1049.75 325.337 1048.51 325.593C1047.21 325.703 1045.9 325.737 1044.58 325.694C1043.25 325.493 1041.92 325.212 1040.6 324.851C1039.32 324.33 1038.08 323.731 1036.86 323.053C1035.73 322.225 1034.65 321.326 1033.63 320.357C1032.73 319.258 1031.91 318.102 1031.17 316.888C1030.59 315.576 1030.1 314.225 1029.71 312.835C1029.5 311.387 1029.4 309.922 1029.41 308.44C1029.62 306.947 1029.94 305.461 1030.36 303.982C1031 302.544 1031.74 301.138 1032.59 299.764C1033.63 298.482 1034.77 297.256 1036.01 296.088C1037.41 295.057 1038.89 294.106 1040.45 293.235C1042.15 292.54 1043.89 291.943 1045.69 291.444C1047.57 291.151 1049.47 290.968 1051.4 290.895C1053.35 291.046 1055.29 291.311 1057.23 291.691C1059.12 292.299 1060.98 293.018 1062.79 293.849C1064.5 294.896 1066.14 296.045 1067.7 297.295C1069.1 298.733 1070.4 300.255 1071.6 301.862C1072.58 303.614 1073.44 305.426 1074.17 307.299C1074.65 309.264 1074.99 311.26 1075.19 313.287C1075.11 315.344 1074.88 317.399 1074.51 319.453C1073.85 321.47 1073.05 323.452 1072.11 325.398C1070.89 327.24 1069.54 329.013 1068.06 330.718C1066.34 332.255 1064.5 333.694 1062.56 335.035C1060.42 336.154 1058.21 337.149 1055.91 338.022C1053.49 338.631 1051.02 339.099 1048.51 339.428" fill="#0099FF"/>
<path d="M1048.51 311.758C1048.48 311.941 1048.43 312.119 1048.36 312.294C1048.23 312.451 1048.09 312.596 1047.92 312.728C1047.72 312.827 1047.5 312.907 1047.26 312.968C1047 312.984 1046.73 312.976 1046.46 312.944C1046.17 312.86 1045.89 312.75 1045.62 312.613C1045.36 312.423 1045.11 312.208 1044.87 311.966C1044.67 311.677 1044.49 311.365 1044.33 311.032C1044.23 310.661 1044.15 310.274 1044.11 309.873C1044.13 309.449 1044.2 309.019 1044.29 308.583C1044.47 308.145 1044.68 307.711 1044.94 307.281C1045.27 306.871 1045.64 306.477 1046.05 306.098C1046.53 305.762 1047.04 305.452 1047.59 305.169C1048.2 304.95 1048.84 304.767 1049.5 304.62C1050.2 304.555 1050.91 304.533 1051.64 304.554C1052.38 304.669 1053.12 304.831 1053.87 305.042C1054.59 305.351 1055.3 305.708 1056 306.114C1056.65 306.615 1057.27 307.161 1057.85 307.752C1058.37 308.427 1058.83 309.141 1059.25 309.891C1059.57 310.707 1059.83 311.549 1060.03 312.418C1060.11 313.326 1060.12 314.246 1060.07 315.178C1059.87 316.118 1059.61 317.054 1059.28 317.985C1058.81 318.89 1058.27 319.772 1057.66 320.633C1056.92 321.432 1056.11 322.191 1055.24 322.912C1054.26 323.537 1053.22 324.107 1052.13 324.622C1050.96 325.013 1049.75 325.337 1048.51 325.593C1047.21 325.703 1045.9 325.737 1044.58 325.694C1043.25 325.493 1041.92 325.212 1040.6 324.851C1039.32 324.33 1038.08 323.731 1036.86 323.053C1035.73 322.225 1034.65 321.326 1033.63 320.357C1032.73 319.258 1031.91 318.102 1031.17 316.888C1030.59 315.576 1030.1 314.225 1029.71 312.835C1029.5 311.387 1029.4 309.922 1029.41 308.44C1029.62 306.947 1029.94 305.461 1030.36 303.982C1031 302.544 1031.74 301.138 1032.59 299.764C1033.63 298.482 1034.77 297.256 1036.01 296.088C1037.41 295.057 1038.89 294.106 1040.45 293.235C1042.15 292.54 1043.89 291.943 1045.69 291.444C1047.57 291.151 1049.47 290.968 1051.4 290.895C1053.35 291.046 1055.29 291.311 1057.23 291.691C1059.12 292.299 1060.98 293.018 1062.79 293.849C1064.5 294.896 1066.14 296.045 1067.7 297.295C1069.1 298.733 1070.4 300.255 1071.6 301.862C1072.58 303.614 1073.44 305.426 1074.17 307.299C1074.65 309.264 1074.99 311.26 1075.19 313.287C1075.11 315.344 1074.88 317.399 1074.51 319.453C1073.85 321.47 1073.05 323.452 1072.11 325.398C1070.89 327.24 1069.54 329.013 1068.06 330.718C1066.34 332.255 1064.5 333.694 1062.56 335.035C1060.42 336.154 1058.21 337.149 1055.91 338.022C1053.49 338.631 1051.02 339.099 1048.51 339.428" stroke="#2459E0" stroke-width="2"/>
</svg>
