<svg width="1920" height="546" viewBox="0 0 1920 546" fill="none" xmlns="http://www.w3.org/2000/svg">
<path d="M-1 358.128C-1 358.128 539.248 306.35 888 304.18C928.027 303.93 950.473 303.95 990.5 304.18C1354.61 306.267 1919 358.128 1919 358.128V547H-1V358.128Z" fill="#002953"/>
<path fill-rule="evenodd" clip-rule="evenodd" d="M-1 546C-1 546 115.857 409.589 211.859 349.885C340.763 269.718 434.529 242.913 582.976 233.998C731.423 225.084 879.87 278.57 1028.32 287.484C1176.76 296.399 1325.21 260.741 1473.66 296.399C1622.11 332.056 1770.55 439.028 1844.78 492.514L1919 546H1844.78C1770.55 546 1622.11 546 1473.66 546C1325.21 546 1176.76 546 1028.32 546C879.87 546 731.423 546 582.976 546C434.529 546 286.082 546 211.859 546H-1Z" fill="#002953"/>
<path d="M971.135 479.123C883.406 493.013 316 546 316 546H728.129C728.129 546 1025.03 493.013 1112.76 479.123C1200.49 465.233 1203.42 445.052 890.998 435.175C676.317 428.388 1178.5 404.125 1178.5 404.125C1178.5 404.125 1321.54 398.601 1294.63 382.628C1253.89 358.449 945.887 346.323 934.901 320.05C923.532 292.861 1059.71 290.477 1124.5 290.477L1020.66 289C911.706 289 783.363 328.95 1020.66 353.599C1313.56 384.025 1200.04 393.369 1133.86 397.327C980.221 406.513 498.815 431.691 811.242 441.568C1123.67 451.446 1058.86 465.233 971.135 479.123Z" fill="#002447"/>
<path d="M299.892 503.532C274.06 501.446 258.814 480.392 238.967 477.152C225.121 472.061 209.058 463.676 202.7 453.087C197.145 443.834 201.521 429.769 200.572 419.302C199.69 409.564 192.995 403.437 200.572 394.328C207.978 385.424 210.271 367.483 221.558 360.527C237.559 350.666 266.199 340.667 266.199 340.667H293.43C293.43 340.667 313.662 329.815 325.277 323.966C342.553 315.267 339.828 319.72 358.97 302.444C372.138 290.561 388.476 280.414 406.117 280.017C421.665 279.666 450.093 284.822 461.606 290.489C472.317 295.761 481.728 296.959 490.672 305.81C502.685 317.698 528.536 318.558 540.876 333.586C547.283 341.389 578.419 366.631 584.475 373.929C593.612 384.94 591.811 416.831 597.686 428.159C605.967 444.125 589.761 447.538 584.475 468.359C581.227 481.152 570.303 483.258 560.033 493.109C543.366 509.097 515.436 503.532 515.436 503.532C515.436 503.532 368.663 509.085 299.892 503.532Z" fill="#6A7376"/>
<path d="M560.962 495.228C560.962 495.228 544.538 497.034 536.603 495.737C531.067 493.698 532.821 490.341 530.279 486.101C528.058 482.397 529.807 476.765 529.428 472.575C529.076 468.676 526.399 466.223 529.428 462.576C532.39 459.011 525.129 451.828 529.642 449.042C536.04 445.094 547.491 441.091 547.491 441.091L558.302 434.404C558.302 434.404 566.468 436.746 571.112 434.404C578.02 430.921 576.93 432.704 584.584 425.787C589.848 421.03 601.902 427.294 608.955 427.135C615.172 426.994 617.275 427.856 621.878 430.125C626.16 432.236 635.025 434.712 638.601 438.256C643.404 443.016 653.431 438.574 658.365 444.591C660.927 447.716 689.39 459.654 691.811 462.576C695.465 466.984 689.531 482.981 689.531 482.981C689.531 482.981 678.348 493.955 669.387 497.888C658.277 502.764 642.707 498.131 638.601 502.075C631.937 508.477 597.262 505.121 597.262 505.121L560.962 495.228Z" fill="#76898F"/>
<path d="M558.223 478.394C558.223 478.394 568.077 477.227 572.838 478.066C576.16 479.383 575.107 481.553 576.633 484.293C577.965 486.688 576.916 490.327 577.143 493.036C577.355 495.556 578.961 497.142 577.143 499.499C575.366 501.803 579.722 506.446 577.015 508.246C573.176 510.798 566.305 513.385 566.305 513.385C566.305 513.385 562.734 516.832 559.819 517.707C556.944 518.571 554.919 516.194 552.133 517.707C547.988 519.958 548.642 518.806 544.05 523.277C540.891 526.352 529.427 522.406 529.427 522.406C529.427 522.406 524.738 521.058 521.673 520.473C511.234 518.479 504.812 522.916 494.458 520.518C489.685 519.412 485.56 520.312 482.599 516.423C481.062 514.404 481.166 501.387 479.713 499.499C477.521 496.649 481.082 486.31 481.082 486.31C481.082 486.31 487.693 479.217 493.168 476.675C499.78 473.605 511.639 473.969 511.639 473.969L536.443 472L558.223 478.394Z" fill="#6F8389"/>
<path fill-rule="evenodd" clip-rule="evenodd" d="M337.852 337.278C339.851 331.83 352.262 328.939 356.463 332.942C378.907 354.324 415.057 359.569 464.914 348.676C474.249 346.636 479.56 352.1 472.886 356.868C437.22 382.346 429.452 406.27 449.58 428.64C453.345 432.829 444.217 439.096 435.888 438.039C391.406 432.402 350.459 441.94 313.048 466.655C306.043 471.283 295.086 469.696 296.612 464.275C304.782 435.313 287.241 417.285 243.987 410.19C235.894 408.863 238.243 401.614 247.519 399.319C297.059 387.057 327.17 366.377 337.852 337.278Z" fill="#FC7C33"/>
<path d="M362.224 401.278C366.949 400.177 370.299 397.222 369.706 394.678C369.114 392.134 364.803 390.964 360.078 392.065C355.353 393.166 352.003 396.12 352.596 398.664C353.189 401.208 357.499 402.378 362.224 401.278Z" fill="#F9AD81"/>
<path d="M418.532 424.174C421.621 423.454 423.812 421.522 423.424 419.859C423.037 418.195 420.218 417.43 417.129 418.15C414.039 418.87 411.849 420.802 412.237 422.465C412.624 424.128 415.443 424.893 418.532 424.174Z" fill="#F9AD81"/>
<path d="M399.103 414.96C402.192 414.24 404.382 412.308 403.995 410.645C403.607 408.982 400.789 408.217 397.7 408.936C394.61 409.656 392.42 411.588 392.807 413.251C393.195 414.915 396.013 415.68 399.103 414.96Z" fill="#F9AD81"/>
<path d="M385.684 407.69C388.774 406.971 390.964 405.039 390.576 403.376C390.189 401.712 387.37 400.947 384.281 401.667C381.192 402.387 379.001 404.318 379.389 405.982C379.776 407.645 382.595 408.41 385.684 407.69Z" fill="#F9AD81"/>
<path d="M437.307 433.558C440.396 432.838 442.587 430.906 442.199 429.243C441.812 427.579 438.993 426.814 435.904 427.534C432.814 428.254 430.624 430.186 431.012 431.849C431.399 433.512 434.218 434.277 437.307 433.558Z" fill="#F9AD81"/>
<path d="M356.036 371.422C359.131 370.701 361.325 368.766 360.937 367.099C360.549 365.433 357.725 364.667 354.63 365.388C351.535 366.109 349.341 368.044 349.729 369.71C350.118 371.376 352.941 372.143 356.036 371.422Z" fill="#F9AD81"/>
<path d="M352.256 355.732C355.351 355.011 357.545 353.076 357.157 351.409C356.769 349.743 353.945 348.977 350.85 349.698C347.755 350.419 345.561 352.354 345.949 354.02C346.338 355.686 349.161 356.453 352.256 355.732Z" fill="#F9AD81"/>
<path d="M348.436 340.228C351.538 339.505 353.737 337.565 353.348 335.895C352.959 334.225 350.129 333.457 347.027 334.179C343.925 334.902 341.726 336.842 342.115 338.512C342.504 340.182 345.334 340.95 348.436 340.228Z" fill="#F9AD81"/>
<path d="M359.118 383.743C362.218 383.021 364.416 381.082 364.027 379.413C363.638 377.744 360.81 376.976 357.71 377.698C354.609 378.421 352.411 380.359 352.8 382.029C353.189 383.698 356.018 384.465 359.118 383.743Z" fill="#F9AD81"/>
<path d="M407.818 378.09C410.907 377.37 413.097 375.438 412.71 373.775C412.322 372.111 409.504 371.346 406.414 372.066C403.325 372.786 401.135 374.718 401.522 376.381C401.91 378.044 404.728 378.809 407.818 378.09Z" fill="#F9AD81"/>
<path d="M435.821 368.432C438.916 367.711 441.11 365.775 440.722 364.109C440.334 362.443 437.51 361.677 434.415 362.397C431.32 363.118 429.126 365.054 429.514 366.72C429.903 368.386 432.726 369.153 435.821 368.432Z" fill="#F9AD81"/>
<path d="M463.335 358.608C466.424 357.888 468.614 355.956 468.227 354.293C467.839 352.63 465.021 351.865 461.932 352.584C458.842 353.304 456.652 355.236 457.039 356.899C457.427 358.563 460.245 359.328 463.335 358.608Z" fill="#F9AD81"/>
<path d="M386.884 386.38C389.979 385.659 392.173 383.724 391.785 382.058C391.397 380.392 388.573 379.625 385.479 380.346C382.384 381.067 380.19 383.002 380.578 384.669C380.966 386.335 383.789 387.101 386.884 386.38Z" fill="#F9AD81"/>
<path d="M282.918 404.045C286.013 403.324 288.207 401.389 287.819 399.723C287.431 398.056 284.607 397.29 281.513 398.011C278.418 398.732 276.224 400.667 276.612 402.334C277 404 279.823 404.766 282.918 404.045Z" fill="#F9AD81"/>
<path d="M312.204 401.081C315.304 400.359 317.502 398.42 317.113 396.751C316.724 395.082 313.896 394.314 310.795 395.036C307.695 395.758 305.497 397.697 305.886 399.366C306.275 401.035 309.103 401.803 312.204 401.081Z" fill="#F9AD81"/>
<path d="M335.113 398.489C338.21 397.768 340.405 395.832 340.017 394.164C339.628 392.497 336.803 391.73 333.706 392.452C330.61 393.173 328.414 395.109 328.803 396.777C329.191 398.444 332.016 399.211 335.113 398.489Z" fill="#F9AD81"/>
<path d="M253.91 407.308C257.007 406.587 259.202 404.65 258.814 402.983C258.426 401.316 255.601 400.549 252.504 401.27C249.407 401.992 247.212 403.928 247.6 405.595C247.989 407.263 250.814 408.029 253.91 407.308Z" fill="#F9AD81"/>
<path d="M324.092 446.531C327.194 445.808 329.394 443.869 329.005 442.198C328.616 440.528 325.785 439.76 322.683 440.483C319.581 441.205 317.382 443.145 317.771 444.815C318.16 446.486 320.99 447.254 324.092 446.531Z" fill="#F9AD81"/>
<path d="M336.777 429.607C339.877 428.885 342.075 426.946 341.686 425.277C341.298 423.608 338.469 422.84 335.369 423.562C332.269 424.284 330.071 426.223 330.459 427.892C330.848 429.562 333.677 430.329 336.777 429.607Z" fill="#F9AD81"/>
<path d="M345.891 416.832C348.985 416.111 351.18 414.176 350.791 412.51C350.403 410.843 347.58 410.077 344.485 410.798C341.39 411.519 339.196 413.454 339.584 415.12C339.972 416.787 342.796 417.553 345.891 416.832Z" fill="#F9AD81"/>
<path d="M311.033 463.201C314.128 462.48 316.322 460.544 315.934 458.878C315.545 457.212 312.722 456.445 309.627 457.166C306.532 457.887 304.338 459.823 304.726 461.489C305.114 463.155 307.938 463.922 311.033 463.201Z" fill="#F9AD81"/>
<path fill-rule="evenodd" clip-rule="evenodd" d="M163.436 496.582C168.653 504.875 205.028 465.579 200.67 412.116C196.495 360.837 181.913 357.87 170.613 298.119C155.579 218.618 189.641 156.714 184.476 153.155C179.532 149.747 132.576 202.799 141.011 289.099C145.975 339.933 162.719 358.661 171.068 409.655C178.809 456.968 158.514 488.759 163.436 496.582Z" fill="#7CC576"/>
<path d="M169.661 392.087L172.324 391.938L169.661 392.087C170.926 414.703 165.379 443.017 157.426 465.612C153.452 476.901 148.934 486.601 144.476 493.366C142.243 496.756 140.102 499.289 138.15 500.92C136.163 502.579 134.691 503.045 133.704 502.997C132.224 502.923 130.651 501.97 129.211 497.877C127.784 493.819 126.913 487.732 126.291 479.675C125.807 473.413 125.486 466.169 125.125 458.038C125.025 455.779 124.922 453.45 124.811 451.056C124.304 440.079 123.645 427.79 122.415 414.561C119.25 380.497 110.367 354.786 100.791 328.964C100.016 326.874 99.2365 324.783 98.4553 322.688C89.5844 298.897 80.4711 274.455 74.7472 242.483L71.7942 243.012L74.7472 242.483C66.7247 197.68 77.2769 158.411 100.035 119.162L100.035 119.161C118.974 86.4952 125.515 55.8376 128.341 33.8407C129.247 26.7887 129.788 20.4334 130.222 15.3349C130.454 12.6127 130.655 10.2487 130.865 8.3282C131.021 6.8976 131.179 5.74074 131.341 4.82409C131.485 5.12748 131.634 5.46607 131.785 5.84203C132.701 8.10888 133.597 11.374 134.389 15.5787C135.969 23.9629 137.062 35.677 137.234 49.6899C137.576 77.7043 134.23 114.603 123.945 151.915C116.639 178.399 114.58 206.579 122.892 234.362C131.892 264.451 140.297 284.455 147.409 301.383C149.681 306.789 151.82 311.882 153.805 316.889C161.969 337.48 167.7 357.003 169.661 392.087ZM132.006 2.39708C132.006 2.39729 132.004 2.40165 131.998 2.4095C132.003 2.40079 132.006 2.39686 132.006 2.39708Z" fill="#3CB878" stroke="#3CB878" stroke-width="6" stroke-linejoin="round"/>
<path fill-rule="evenodd" clip-rule="evenodd" d="M84.1207 497.837C51.8254 499.048 22.8734 451.205 21.2141 412.955C18.6715 354.352 33.8273 345.801 46.8056 278.852C51.2538 255.904 47.3698 233.385 39.3118 212.507C16.0979 152.342 16.0454 91.3112 23.1293 87.423C29.4766 83.9394 24.6281 131.362 60.6146 181.274C82.789 212.031 94.9494 244.029 91.9647 282.253C87.3774 341.002 74.3894 362.88 74.7545 418.737C75.1056 472.014 109.84 496.874 84.1207 497.837Z" fill="#7CC576"/>
<path fill-rule="evenodd" clip-rule="evenodd" d="M204.701 501.049C232.464 502.091 257.354 460.96 258.781 428.078C260.966 377.698 247.937 370.346 236.78 312.791C232.956 293.064 236.295 273.705 243.219 255.756C263.176 204.029 263.221 151.565 257.136 148.223C251.676 145.226 255.852 185.996 224.913 228.905C205.848 255.348 195.394 282.855 197.96 315.715C201.904 366.222 213.07 385.029 212.757 433.048C212.45 478.854 182.588 500.226 204.701 501.049Z" fill="#7CC576"/>
<path d="M1586.97 547.18C1580.22 549.648 1575.98 550.06 1568.91 550.212C1563.13 550.336 1559.65 549.684 1554.06 547.888C1534.77 541.693 1559 530.63 1553.2 507.87C1547.39 485.11 1545.51 486.771 1539.15 482.729C1518.08 469.332 1480.04 518.771 1465.05 496.555C1451.88 477.022 1473.15 487.967 1479.01 473.39C1485.6 456.989 1430.31 454.571 1446.6 429.375C1453.18 419.213 1458.07 395.729 1468.46 397.911C1477.59 399.829 1471.35 417.35 1475.5 428.753C1487.32 461.233 1499.6 459.466 1524.84 450.049C1554.38 439.03 1502.09 420.052 1490.13 397.445C1476.24 371.196 1437.6 386.357 1436.82 349.814C1436.18 319.965 1459.72 363.892 1461.97 353.338C1466.82 330.596 1426.04 267.358 1445.63 265.281C1481.68 261.457 1448.35 295.2 1487.99 297.904C1503.85 298.987 1498.99 271.247 1523.54 270.719C1548.09 270.191 1527.02 294.218 1521.77 306.832C1513.1 327.641 1491.93 303.409 1475.93 330.174C1470 340.086 1475.89 354.855 1489.35 361.387C1505.58 369.258 1524 352.527 1520.37 340.904C1515.81 326.268 1547.16 317.087 1552.59 336.655C1559.04 359.889 1513.37 358.33 1513.94 384.716C1514.21 397.411 1540.93 413.973 1556.15 403.647C1572.92 392.279 1572.67 358.371 1564.21 331.832C1558.57 314.146 1524.11 303.464 1538.5 294.278C1561.56 279.555 1566.2 323.057 1579.29 313.331C1594.2 302.262 1551.03 264.031 1576.52 263.483C1629.23 262.35 1587.31 306.526 1606.49 312.747C1629.22 320.121 1621.81 274.195 1656.66 273.446C1691.5 272.697 1655.91 311.018 1643.35 326.574C1630.09 342.99 1600.47 335.2 1596.53 343.73C1587.26 363.791 1605.05 391.604 1588.23 412.611C1577.47 426.053 1553.66 434.95 1575.41 448.961C1592.84 460.19 1605.66 431.584 1612.83 410.05C1619.01 391.484 1598.35 361.469 1611.73 358.756C1640.51 352.917 1619.8 389.697 1634.93 389.759C1657.14 389.85 1660.53 321.902 1675.14 342.04C1687.38 358.919 1660.32 374.646 1662.28 396.792C1664 416.156 1689.04 397.377 1684.81 416.124C1678.62 443.508 1662.27 421.508 1641.47 437.181C1626.17 448.71 1600.41 455.496 1590.99 481.614C1583.81 501.525 1601.9 541.724 1586.97 547.18Z" fill="#B246F4"/>
<path d="M1320.46 610.892C1329.11 613.556 1334.52 614.015 1343.57 614.21C1350.96 614.369 1355.41 613.688 1362.55 611.797C1387.19 605.274 1356.16 593.358 1363.47 569.097C1370.79 544.835 1373.21 546.616 1381.32 542.331C1408.2 528.131 1457.08 581.062 1476.14 557.423C1492.9 536.64 1465.75 548.222 1458.19 532.64C1449.68 515.108 1520.39 512.779 1499.43 485.817C1490.98 474.943 1484.61 449.861 1471.34 452.142C1459.68 454.147 1467.73 472.873 1462.48 485.023C1447.51 519.629 1431.79 517.687 1399.47 507.523C1361.65 495.63 1428.43 475.616 1443.62 451.546C1461.27 423.598 1510.75 439.953 1511.59 400.961C1512.27 369.11 1482.36 415.879 1479.43 404.606C1473.13 380.315 1524.99 313.018 1499.94 310.713C1453.81 306.468 1496.58 342.628 1445.91 345.333C1425.62 346.416 1431.71 316.836 1400.32 316.161C1368.93 315.486 1395.98 341.221 1402.75 354.706C1413.93 376.952 1440.89 351.189 1461.48 379.823C1469.1 390.428 1461.64 406.162 1444.45 413.071C1423.74 421.396 1400.11 403.458 1404.69 391.072C1410.46 375.474 1370.33 365.534 1363.47 386.391C1355.32 411.155 1413.72 409.699 1413.11 437.854C1412.82 451.4 1378.73 468.952 1359.21 457.863C1337.73 445.656 1337.89 409.473 1348.58 381.191C1355.71 362.343 1399.74 351.102 1381.29 341.233C1351.73 325.417 1346.01 371.818 1329.21 361.38C1310.09 349.499 1365.13 308.898 1332.53 308.197C1265.12 306.748 1318.92 354.081 1294.43 360.632C1265.39 368.397 1274.65 319.423 1230.09 318.464C1185.53 317.506 1231.22 358.562 1247.36 375.22C1264.39 392.798 1302.23 384.62 1307.31 393.741C1319.25 415.191 1296.62 444.789 1318.23 467.283C1332.06 481.676 1362.55 491.279 1334.8 506.132C1312.56 518.036 1296.03 487.451 1286.76 464.438C1278.77 444.598 1305.05 412.662 1287.94 409.706C1251.1 403.344 1277.75 442.687 1258.41 442.684C1230 442.681 1225.36 370.155 1206.77 391.579C1191.19 409.536 1225.86 426.442 1223.45 450.065C1221.35 470.721 1189.23 450.567 1194.74 470.592C1202.78 499.843 1223.58 476.441 1250.25 493.26C1269.88 505.633 1302.85 512.992 1315.02 540.906C1324.3 562.187 1301.33 605.001 1320.46 610.892Z" fill="#7446F4"/>
<path d="M1650.1 578.709C1659.33 584.639 1665.5 586.838 1676 589.792C1684.57 592.204 1689.99 592.684 1698.94 592.45C1729.82 591.646 1697.48 567.408 1713.93 539.168C1730.38 510.929 1732.63 513.888 1743.49 510.944C1779.49 501.183 1819.29 582.21 1849.24 558.269C1875.57 537.22 1840.11 543.618 1836.37 521.809C1832.15 497.272 1915.43 515.525 1899.76 475.432C1893.45 459.263 1894.19 425.896 1877.96 424.783C1863.69 423.804 1866.99 449.704 1856.89 463.369C1828.14 502.29 1810.43 495.149 1776.02 472.72C1735.75 446.477 1820.22 441.373 1845.8 415.735C1875.51 385.966 1927.92 421.297 1941.62 372.642C1952.8 332.899 1902.63 382.599 1902.9 367.584C1903.46 335.229 1985.93 266.355 1957.44 255.959C1904.99 236.823 1943.12 294.985 1883.1 283.202C1859.07 278.486 1875.82 243.209 1839.4 232.961C1802.98 222.713 1826.16 263.092 1829.67 282.035C1835.47 313.284 1875.33 289.044 1890.02 331.124C1895.46 346.708 1881.63 364.208 1859.31 367.726C1832.42 371.964 1810.69 342.389 1820.08 328.226C1831.9 310.391 1788.3 285.905 1773.49 310.01C1755.91 338.631 1824.54 354.293 1814.66 389.425C1809.9 406.327 1764.39 418.132 1745.23 398.38C1724.13 376.634 1736.11 331.3 1757.82 299.031C1772.28 277.526 1827.33 276.612 1809.02 258.71C1779.67 230.02 1757.86 286.503 1741.66 268.381C1723.23 247.755 1800.7 213.315 1762.87 202.671C1684.67 180.667 1732.04 256.146 1701.31 257.027C1664.89 258.071 1691.67 199.419 1639.97 184.872C1588.27 170.324 1628.21 235.501 1641.62 261.227C1655.77 288.374 1702.6 289.451 1705.55 302.411C1712.5 332.89 1676.44 363.238 1694.33 397.922C1705.77 420.116 1738.22 441.289 1700.99 451.608C1671.16 459.878 1661.84 416.568 1658.52 384.928C1655.66 357.651 1696.75 325.468 1677.74 316.633C1636.82 297.624 1655.1 354.95 1632.53 349.154C1599.37 340.641 1617.6 248.287 1588.92 269.591C1564.88 287.447 1599.84 319.035 1589.32 347.943C1580.13 373.22 1549.22 338.326 1549.12 365.09C1548.97 404.186 1580.87 381.063 1606.52 410.146C1625.39 431.541 1661.47 450.645 1666.57 489.3C1670.46 518.77 1629.7 565.593 1650.1 578.709Z" fill="#4F15F2"/>
<path d="M1006 290.127C1006 282.54 1012.33 290.961 1035 282.127C1055.66 274.076 1097.23 258.851 1112 256.826C1113.15 256.668 1114.14 243.698 1114.94 238.627C1115.14 237.382 1113.5 236.628 1115.5 236.627C1117.5 236.627 1115.78 237.407 1115.77 238.627C1115.72 243.686 1114.24 256.608 1115 256.826C1118.08 257.713 1120.82 259.54 1123 261.69C1123.27 261.959 1139.23 254.658 1143.5 253.127C1144.1 252.911 1144.62 250.869 1145.5 252.627C1146.25 254.127 1144.67 253.406 1144 253.772C1139.88 256.022 1124.51 263.338 1124.75 263.627C1128.39 268.175 1129.55 273.295 1126.5 274.127C1121 275.627 1098.5 282.127 1095.5 288.627C1094.38 291.059 1083.65 293.866 1072.5 293.627C1067.05 293.511 1060.66 292.012 1053.5 291.452C1046.29 290.887 1037.95 296.982 1030 295.127C1026.82 294.386 1026.27 290.168 1023.5 290.127C1015.02 290.004 1006 293.896 1006 290.127Z" fill="#2459E0"/>
<path d="M1024.82 235.379C1062.75 200.807 1105.79 250.714 1089.76 269.944C1089.76 269.944 1080.44 279.132 1072.82 281.849C1065.88 284.323 1058.19 281.826 1054.05 283.68C1028.76 294.996 998.832 259.072 1024.82 235.379Z" fill="#0099FF"/>
<path d="M1047.51 258.757C1047.48 258.94 1047.43 259.119 1047.36 259.293C1047.23 259.451 1047.09 259.595 1046.92 259.727C1046.72 259.827 1046.5 259.907 1046.26 259.968C1046 259.984 1045.73 259.976 1045.46 259.943C1045.17 259.86 1044.89 259.749 1044.62 259.612C1044.36 259.423 1044.11 259.207 1043.87 258.966C1043.67 258.676 1043.49 258.365 1043.33 258.031C1043.23 257.66 1043.15 257.274 1043.11 256.872C1043.13 256.449 1043.2 256.019 1043.29 255.583C1043.47 255.144 1043.68 254.71 1043.94 254.28C1044.27 253.87 1044.64 253.476 1045.05 253.097C1045.53 252.761 1046.04 252.452 1046.59 252.169C1047.2 251.95 1047.84 251.767 1048.5 251.62C1049.2 251.554 1049.91 251.532 1050.64 251.554C1051.38 251.668 1052.12 251.831 1052.87 252.042C1053.59 252.35 1054.3 252.707 1055 253.113C1055.65 253.614 1056.27 254.16 1056.85 254.752C1057.37 255.427 1057.83 256.14 1058.25 256.891C1058.57 257.707 1058.83 258.549 1059.03 259.418C1059.11 260.325 1059.12 261.245 1059.07 262.177C1058.87 263.118 1058.61 264.053 1058.28 264.984C1057.81 265.889 1057.27 266.772 1056.66 267.632C1055.92 268.431 1055.11 269.191 1054.24 269.911C1053.26 270.536 1052.22 271.106 1051.13 271.622C1049.96 272.013 1048.75 272.337 1047.51 272.592C1046.21 272.703 1044.9 272.736 1043.58 272.694C1042.25 272.493 1040.92 272.212 1039.6 271.851C1038.32 271.33 1037.08 270.73 1035.86 270.053C1034.73 269.225 1033.65 268.326 1032.63 267.357C1031.73 266.258 1030.91 265.101 1030.17 263.888C1029.59 262.576 1029.1 261.225 1028.71 259.835C1028.5 258.387 1028.4 256.922 1028.41 255.439C1028.62 253.946 1028.94 252.46 1029.36 250.982C1030 249.543 1030.74 248.137 1031.59 246.764C1032.63 245.481 1033.77 244.256 1035.01 243.088C1036.41 242.057 1037.89 241.106 1039.45 240.234C1041.15 239.54 1042.89 238.943 1044.69 238.443C1046.57 238.151 1048.47 237.968 1050.4 237.894C1052.35 238.045 1054.29 238.311 1056.23 238.69C1058.12 239.298 1059.98 240.018 1061.79 240.849C1063.5 241.896 1065.14 243.044 1066.7 244.295C1068.1 245.733 1069.4 247.255 1070.6 248.861C1071.58 250.613 1072.44 252.426 1073.17 254.298C1073.65 256.263 1073.99 258.259 1074.19 260.286C1074.11 262.343 1073.88 264.399 1073.51 266.453C1072.85 268.47 1072.05 270.451 1071.11 272.397C1069.89 274.239 1068.54 276.013 1067.06 277.718C1065.34 279.255 1063.5 280.694 1061.56 282.035C1059.42 283.153 1057.21 284.149 1054.91 285.022C1052.49 285.63 1050.02 286.099 1047.51 286.427" stroke="#2459E0" stroke-width="2"/>
</svg>
