<svg viewBox="0 0 140 295" fill="none" xmlns="http://www.w3.org/2000/svg">
<path fill-rule="evenodd" clip-rule="evenodd" d="M82.4319 268.196C85.3557 272.844 105.742 250.82 103.3 220.856C100.96 192.116 92.7873 190.454 86.4543 156.966C78.0285 112.409 97.1187 77.7143 94.2237 75.7193C91.4529 73.8095 65.1363 103.543 69.8637 151.91C72.6459 180.401 82.0299 190.897 86.7093 219.477C91.0479 245.994 79.6731 263.812 82.4319 268.196Z" fill="#7CC576" stroke="#3CB878" stroke-width="10" stroke-linejoin="round"/>
<path fill-rule="evenodd" clip-rule="evenodd" d="M63.9183 289.588C73.1535 290.044 87.2823 251.581 85.8321 225.655C83.6121 185.935 72.8067 181.18 59.5521 136.868C55.0083 121.681 56.1159 106.222 60.1521 91.5893C71.7759 49.4207 67.7121 8.23134 62.6679 6.08334C58.1505 4.15914 64.6089 35.8379 43.6761 71.9417C30.7761 94.1897 24.7197 116.602 29.3031 142.198C36.3465 181.54 52.4942 200.774 56 238.5C58.7414 268 56.4051 289.217 63.9183 289.588Z" fill="#7CC576" stroke="#3CB878" stroke-width="10" stroke-linejoin="round"/>
<path fill-rule="evenodd" clip-rule="evenodd" d="M43.4975 285.017C25.3973 285.696 9.17089 258.882 8.24089 237.445C6.81589 204.6 15.3101 199.807 22.5839 162.285C25.0769 149.424 22.9001 136.803 18.3839 125.102C5.3735 91.3817 5.34409 57.1763 9.31429 54.9971C12.8717 53.0447 10.1543 79.6229 30.3233 107.597C42.7511 124.835 49.5665 142.768 47.8937 164.191C45.3227 197.118 38.0435 209.38 38.2481 240.685C38.4449 270.545 57.9119 284.477 43.4975 285.017Z" fill="#7CC576" stroke="#3CB878" stroke-width="10" stroke-linejoin="round"/>
<path fill-rule="evenodd" clip-rule="evenodd" d="M101.55 286.817C117.11 287.401 131.06 264.349 131.86 245.92C133.084 217.684 125.782 213.564 119.529 181.307C117.386 170.251 119.257 159.4 123.138 149.341C134.323 120.35 134.348 90.9461 130.938 89.0729C127.878 87.3929 130.218 110.243 112.878 134.292C102.193 149.112 96.3342 164.528 97.7724 182.945C99.9828 211.252 106.241 221.793 106.065 248.705C105.893 274.378 89.157 286.356 101.55 286.817Z" fill="#7CC576" stroke="#3CB878" stroke-width="10" stroke-linejoin="round"/>
</svg>
